<?xml version="1.0" standalone="no"?>
<!DOCTYPE svg PUBLIC "-//W3C//DTD SVG 20010904//EN"
 "http://www.w3.org/TR/2001/REC-SVG-20010904/DTD/svg10.dtd">
<svg version="1.0" xmlns="http://www.w3.org/2000/svg"
 width="300.000000pt" height="300.000000pt" viewBox="0 0 300.000000 300.000000"
 preserveAspectRatio="xMidYMid meet">
<metadata>
Created by potrace 1.14, written by Peter Selinger 2001-2017
</metadata>
<g transform="translate(0.000000,300.000000) scale(0.100000,-0.100000)"
fill="#000000" stroke="none">
<path d="M0 1500 l0 -1500 1500 0 1500 0 0 1500 0 1500 -1500 0 -1500 0 0
-1500z m1680 565 l169 -220 1 -155 0 -155 -40 47 c-23 26 -63 62 -90 79 l-50
32 0 79 0 78 -82 103 c-44 56 -84 102 -88 102 -4 0 -44 -46 -88 -102 l-82
-103 -86 0 c-68 0 -83 3 -77 13 28 47 328 427 335 425 5 -2 85 -102 178 -223z
m-348 -538 l3 -264 29 -38 c16 -21 46 -45 67 -54 l39 -16 0 -88 0 -89 -32 7
c-145 30 -254 145 -278 291 -11 66 -14 497 -3 507 3 4 44 7 89 7 l83 0 3 -263z
m322 104 c105 -51 168 -141 187 -263 5 -35 8 -180 7 -323 l-3 -260 -36 -17
c-163 -80 -455 -80 -618 0 l-36 17 -3 98 c-1 53 1 97 6 97 5 0 35 -13 68 -30
32 -16 86 -36 119 -45 63 -16 224 -20 285 -7 35 8 35 8 38 66 3 53 1 58 -15
51 -27 -11 -105 -35 -115 -35 -4 0 -8 39 -8 88 l0 87 39 16 c109 46 135 200
46 278 -59 52 -127 60 -198 24 l-28 -14 3 98 c3 94 4 97 28 105 14 4 57 6 97
4 57 -2 86 -10 137 -35z m-747 -22 c40 -10 99 -31 130 -46 l58 -28 3 -107 c1
-60 0 -108 -3 -108 -4 0 -21 11 -38 24 -46 35 -161 88 -165 76 -7 -21 21 -116
54 -185 33 -69 126 -195 144 -195 6 0 10 -47 10 -110 0 -60 -4 -110 -9 -110
-17 0 -126 87 -173 138 -157 169 -241 421 -212 636 l7 48 61 -7 c34 -4 94 -16
133 -26z m1387 -15 c29 -215 -55 -467 -212 -636 -47 -51 -156 -138 -173 -138
-5 0 -9 50 -9 110 0 63 4 110 10 110 18 0 111 126 144 195 33 69 61 164 54
185 -4 12 -119 -41 -165 -76 -17 -13 -34 -24 -37 -24 -3 0 -6 47 -6 105 0 97
2 106 23 119 59 39 248 92 338 95 24 1 27 -3 33 -45z"/>
</g>
</svg>
