<?xml version="1.0" encoding="UTF-8"?><svg xmlns="http://www.w3.org/2000/svg" viewBox="0 0 23.29 17.74"><g id="a"/><g id="b"><g id="c"><g id="d"><g id="e"><path d="M19.71,1.47C18.22,.79,16.63,.29,14.97,0,14.94,0,14.91,0,14.89,.04c-.2,.36-.43,.84-.59,1.21-1.79-.27-3.57-.27-5.32,0-.16-.38-.39-.85-.6-1.21-.02-.03-.05-.04-.08-.04-1.66,.29-3.25,.79-4.74,1.47,0,0-.02,0-.03,.03C.52,6.01-.31,10.4,.1,14.75c0,.02,0,.04,.03,.05,1.99,1.46,3.92,2.35,5.81,2.94,.03,0,.06,0,.08-.03,.45-.61,.85-1.26,1.19-1.93,.02-.04,0-.09-.04-.1-.63-.24-1.24-.53-1.82-.87-.05-.03-.05-.09,0-.12,.12-.09,.24-.19,.36-.28,.02-.02,.05-.02,.08-.01,3.81,1.74,7.93,1.74,11.7,0,.02-.01,.05,0,.08,0,.12,.1,.24,.19,.36,.28,.04,.03,.04,.1,0,.12-.58,.34-1.18,.63-1.82,.86-.04,.02-.06,.06-.04,.1,.35,.68,.75,1.32,1.19,1.93,.02,.03,.05,.04,.08,.03,1.9-.59,3.83-1.48,5.82-2.94,.02-.01,.03-.03,.03-.05,.49-5.02-.81-9.38-3.44-13.25,0,0-.02-.02-.03-.03v.02ZM7.78,12.1c-1.15,0-2.09-1.05-2.09-2.35s.93-2.35,2.09-2.35,2.11,1.06,2.09,2.35c0,1.29-.93,2.35-2.09,2.35Zm7.74,0c-1.15,0-2.09-1.05-2.09-2.35s.93-2.35,2.09-2.35,2.11,1.06,2.09,2.35c0,1.29-.92,2.35-2.09,2.35Z" style="fill:#fff;"/></g></g></g></g></svg>