<?xml version="1.0" encoding="utf-8"?>
<!-- Generator: Adobe Illustrator 26.2.0, SVG Export Plug-In . SVG Version: 6.00 Build 0)  -->
<svg version="1.1" id="Layer_1" xmlns="http://www.w3.org/2000/svg" xmlns:xlink="http://www.w3.org/1999/xlink" x="0px" y="0px"
	 viewBox="0 0 29.8 18.1" style="enable-background:new 0 0 29.8 18.1;" xml:space="preserve">
<style type="text/css">
	.st0{fill:#FFFFFF;}
</style>
<g id="a">
</g>
<g id="b">
	<g id="c">
		<g>
			<path class="st0" d="M14.9,14.8c0,1.8,1.4,3.3,3,3.3h10.1c1,0,1.7-0.9,1.7-1.9s-0.8-1.9-1.7-1.9h-7.4c0,0-0.1,0-0.1-0.1
				c0,0,0-0.1,0-0.1l3.4-3.1c0.5-0.5,0.9-1.2,0.9-2s-0.3-1.5-0.9-2L20.7,4c0,0,0,0,0-0.1c0,0,0-0.1,0.1-0.1h7.3c1,0,1.7-0.8,1.7-1.9
				S29,0,28.1,0H14.9v4.9l4.3,4.1c0,0,0.1,0.1,0.1,0.2s0,0.1-0.1,0.2L16,12.3C15.3,12.9,14.9,13.8,14.9,14.8L14.9,14.8z"/>
			<path class="st0" d="M2.9,0C1.3,0,0,1.4,0,3.2V16c0,1.2,0.9,2.1,1.9,2.1s1.9-0.9,1.9-2.1V7c0,0,0-0.1,0.1-0.1c0,0,0.1,0,0.1,0.1
				l3.4,9.8C7.7,17.5,8.4,18,9.1,18s1.4-0.5,1.7-1.2L14.2,7l0.7-2.1V0c-0.9,0-1.8,0.6-2.1,1.6l-3.5,9.6c0,0.1-0.1,0.1-0.1,0.1
				S9,11.2,9,11.1L5.6,2C5.2,0.8,4.1,0,2.9,0z"/>
		</g>
	</g>
</g>
</svg>
