<?xml version="1.0" encoding="UTF-8"?><svg xmlns="http://www.w3.org/2000/svg" viewBox="0 0 22.27 18.23"><g id="a"/><g id="b"><g id="c"><path d="M21.76,2.1c-.35,.16-.71,.29-1.08,.39,.44-.49,.77-1.07,.97-1.7,.05-.14,0-.3-.12-.39-.12-.09-.28-.1-.41-.03-.78,.46-1.62,.8-2.51,.99-.89-.87-2.1-1.36-3.35-1.36-2.64,0-4.78,2.14-4.78,4.78,0,.21,.01,.41,.04,.62-3.27-.29-6.31-1.89-8.4-4.46-.07-.09-.19-.14-.31-.13-.12,0-.22,.08-.28,.18-.42,.73-.65,1.56-.65,2.4,0,1.15,.41,2.24,1.14,3.1-.22-.08-.44-.17-.64-.29-.11-.06-.24-.06-.35,0-.11,.06-.18,.18-.18,.3,0,.02,0,.04,0,.06,0,1.72,.93,3.27,2.34,4.11-.12-.01-.24-.03-.36-.05-.12-.02-.25,.02-.34,.11-.08,.09-.11,.23-.07,.35,.52,1.63,1.87,2.84,3.5,3.2-1.35,.85-2.9,1.29-4.52,1.29-.34,0-.68-.02-1.01-.06-.17-.02-.32,.08-.38,.24-.06,.16,0,.33,.14,.42,2.08,1.34,4.5,2.04,6.97,2.04,4.87,0,7.91-2.29,9.61-4.22,2.12-2.4,3.33-5.58,3.33-8.72,0-.13,0-.26,0-.4,.83-.63,1.55-1.39,2.14-2.27,.09-.13,.08-.31-.02-.43-.1-.12-.27-.16-.42-.1Z" style="fill:#b8513d;"/></g></g></svg>